<?xml version="1.0" encoding="iso-8859-1"?>
<!-- Generator: Adobe Illustrator 25.1.0, SVG Export Plug-In . SVG Version: 6.00 Build 0)  -->
<svg version="1.1" id="Layer_1" xmlns="http://www.w3.org/2000/svg" xmlns:xlink="http://www.w3.org/1999/xlink" x="0px" y="0px"
	 width="596.571px" height="720px" viewBox="0 0 596.571 720" enable-background="new 0 0 596.571 720" xml:space="preserve">
<g>
	<path fill="#0A0F09" d="M585.116,279.824c-72.391,6.934-133.878,18.508-195.823,45.731c-6.171,2.677-8.066,1.489-8.142-4.885
		c-0.128-10.674-1.593-21.303-4.328-31.522c-1.82-6.798-0.567-9.188,6.113-11.463c49.06-16.708,95.737-38.621,139.806-65.931
		c11.461-7.135,70.539-45.442,39.109-52.935c-81.067-5.089-161.714,20.259-232.453,58.868c-3.91,2.228-7.071,3.296-11.698,1.578
		c-40.619-15.077-82.642-19.308-125.583-15.098c-4.644,0.455-5.132-0.704-4.497-4.651c7.535-62.494,13.742-127.204,5.437-189.771
		c-7.42-21.656-26.253,7.8-31.869,16.857c-37.065,60.524-54.059,126.853-56.623,197.264c-0.606,16.653-0.248,33.248-8.466,48.688
		c-9.405,27.354-12.097,57.099-24.099,83.86c-11.287,28.6-7.949,55.362,10.346,80.078c6.442,12.122,22.847,20.127,21.963,34.942
		c-4.236,29-14.251,59.318-31.873,81.957c-10.156,3.287-17.618,10.517-26.281,18.529c-12.683-33.785-39.733-36-43.233,3.374
		c0.491,31.766,7.587,61.961,20.223,90.912c7.423,15.487,22.313,47.362,43.231,32.571c25.52-2.676,52.353,6.174,78.63,3.036
		c14.462,5.386,26.34,17.847,43.843,10.514c1.423-0.498,2.228,0.15,3.113,0.994c5.573,5.313,10.647,2.982,15.185-1.374
		c5.331-7.483,10.792,2.031,17.292-1.64c8.617-5.716,12.831,11.683,20.307,6.877c8.444-7.813,16.962,0.506,25.642-1.144
		c7.312-1.39,15.528-4.147,23.785-1.626c2.767,0.845,5.595-2.672,6.117-5.762c1.706-6.473,10.32-1.917,15.166-2.76
		c22.592,1.429,45.257,5.076,67.563-2.102c1.772-0.57,2.772,0.23,4.105,0.918c7.176,3.707,13.409,1.303,19.003-3.425
		c27.047-26.821,59.739-112.129,43.031-147.997c-14.276-24.485-25.74,16.271-34.448,9.241c-6.867-9.528-26.056-7.039-23.24-12.327
		c1.831-5.235,2.331-10.949,9.391-13.21c74.054-24.993,48.613-12.561,29.709-95.556c-1.372-4.639-1.382-6.939,4.659-7.151
		c28.564-0.999,57.115-3.222,85.698-1.835c7.216,0.35,11.31-1.958,14.767-7.838C543.65,409.782,618.518,276.625,585.116,279.824z
		 M386.794,496.743c-12.832,6.209-12.641,6.41-15.404-7.582c-1.923-9.739-4.601-19.374-2.975-31.808
		c7.812,11.29,14.119,20.906,20.977,30.111C392.988,492.291,391.824,494.309,386.794,496.743z"/>
	<path fill="#0A0F09" d="M162.147,314.948c-0.739-35.884-51.417-33.59-52.684,0.174
		C108.157,349.946,162.861,349.575,162.147,314.948z M147.772,310.149c-1.587,2.712-4.289,4.162-7.525,4.088
		c-5.832-0.135-8.457-4.47-8.471-8.708c-0.014-4.477,2.953-9.098,8.653-9.267c3.267-0.109,5.927,1.242,7.43,3.776
		C149.587,302.95,149.551,307.108,147.772,310.149z M294.893,296.611c-34.674,0.634-35.264,53.683,0.252,54.093
		C330.356,351.109,329.121,295.985,294.893,296.611z M301.187,318.566c-1.734,2.644-4.501,3.983-7.827,3.77
		c-6.359-0.413-9.001-5.446-8.765-9.947c0.22-4.226,3.161-8.658,9.098-8.658c0.159,0,0.322,0.003,0.486,0.01
		c3.473,0.138,6.175,1.747,7.608,4.531C303.404,311.414,303.163,315.551,301.187,318.566z M190.444,332.162
		c3.781-2.734,18.198-0.873,12.883,6.028C198.653,344.259,187.752,339.705,190.444,332.162z M180.59,357.441
		c-3.08,1.448-6.913,3.251-11.606,5.297c-15.333,9.246-27.7-5.781-26.219,2.946c8.375,6.243,10.07,4.911,11.471,16.326
		c4.998,24.89,11.919,50.953,28.573,72.929c31.977,40.365,61.384-21.192,67.961-51.406c3.585-12.472,1.135-26.457,12.802-35.879
		c-0.262-0.601-0.46-1.01-0.83-1.866C232.562,387.656,207.399,338.778,180.59,357.441z M246.801,390.235
		c-0.348,1.406-0.709,2.862-0.942,4.258c-3.752,22.466-11.52,40.878-23.747,56.29c-5.26,6.63-10.961,10.28-17.318,11.155
		c-4.964-0.419-9.004-2.353-12.35-5.912c-13.559-14.412-22.267-32.999-27.404-58.494c-1.404-6.972,1.245-15.511,7.271-23.427
		c5.773-7.584,13.57-13.162,20.858-14.919c0.706-0.171,1.385-0.246,2.044-0.246c2.373,0,4.469,0.972,6.527,1.925
		c0.52,0.241,1.04,0.481,1.569,0.71c4.608,1.993,9.107,4.408,13.459,6.745c5.882,3.158,11.964,6.424,18.459,8.727
		c1.612,0.569,3.514,0.43,5.358,0.297c3.151-0.228,6.123-0.442,7.106,3.001C248.527,383.274,247.655,386.791,246.801,390.235z
		 M353.146,381.377c-29.728-29.187-74.269,16.754-44.322,45.868C339.002,456.584,382.639,410.334,353.146,381.377z M306.021,398.676
		c2.602-9.286,10.555-17.101,19.79-19.447c1.921-0.488,3.835-0.729,5.727-0.729c6.398,0,12.525,2.762,17.673,8.063
		c11.906,12.261,8.073,26.88-0.529,35.273c-9.254,9.033-24.654,12.032-36.174,0.283C305.96,415.44,303.656,407.115,306.021,398.676z
		 M585.116,279.824c-72.391,6.935-133.878,18.508-195.823,45.731c-6.171,2.677-8.066,1.489-8.142-4.885
		c-0.128-10.674-1.593-21.303-4.328-31.522c-1.82-6.798-0.567-9.188,6.113-11.463c49.06-16.708,95.737-38.621,139.806-65.931
		c11.461-7.135,70.539-45.442,39.109-52.935c-81.067-5.089-161.714,20.259-232.453,58.868c-3.91,2.228-7.071,3.296-11.698,1.578
		c-40.619-15.077-82.642-19.308-125.583-15.098c-4.644,0.455-5.132-0.704-4.497-4.651c7.535-62.494,13.742-127.204,5.437-189.771
		c-7.42-21.656-26.253,7.8-31.869,16.857c-37.065,60.524-54.059,126.853-56.624,197.264c-0.606,16.653-0.248,33.248-8.466,48.688
		c-9.405,27.353-12.097,57.099-24.099,83.86c-11.287,28.6-7.949,55.362,10.346,80.078c6.442,12.122,22.847,20.127,21.963,34.942
		c-4.236,29-14.251,59.318-31.873,81.957c-10.156,3.287-17.618,10.517-26.281,18.529c-12.683-33.785-39.733-36-43.233,3.374
		c0.491,31.766,7.587,61.961,20.223,90.912c7.423,15.487,22.313,47.362,43.231,32.571c25.52-2.676,52.353,6.174,78.63,3.036
		c14.462,5.386,26.34,17.847,43.843,10.514c1.423-0.498,2.228,0.15,3.113,0.994c5.573,5.313,10.647,2.982,15.185-1.374
		c5.331-7.483,10.792,2.031,17.292-1.64c8.617-5.716,12.831,11.683,20.306,6.877c8.444-7.813,16.962,0.506,25.642-1.144
		c7.312-1.39,15.528-4.147,23.785-1.626c2.767,0.845,5.595-2.672,6.117-5.762c1.706-6.473,10.32-1.917,15.166-2.76
		c22.592,1.429,45.257,5.076,67.563-2.102c1.772-0.57,2.772,0.23,4.105,0.918c7.176,3.707,13.409,1.303,19.003-3.425
		c27.047-26.821,59.739-112.128,43.031-147.997c-14.276-24.485-25.739,16.271-34.448,9.242c-6.867-9.528-26.056-7.039-23.24-12.327
		c1.831-5.235,2.331-10.949,9.391-13.21c74.054-24.993,48.613-12.561,29.709-95.556c-1.372-4.639-1.382-6.939,4.659-7.151
		c28.564-0.999,57.115-3.222,85.698-1.835c7.216,0.35,11.31-1.958,14.767-7.838C543.65,409.782,618.518,276.625,585.116,279.824z
		 M76.413,396.03c-0.621-5.619,0.847-25.631,5.773-30.199v0.001c5.179-4.799,13.419-1.558,18.9,4.145
		c9.422,8.819,7.886,21.969,3.308,31.334c-4.349,8.897-11.354,14.482-17.043,13.581C81.898,414.029,78.013,407.325,76.413,396.03z
		 M410.43,572.015c6.411,11.221-11.044,25.297-7.884,38.703c8.35-13.952,14.661-29.243,24.656-41.771
		c1.046-1.311,2.663-0.804,2.663-0.804l-5.227,22.638c12.055-5.201,9.95-23.021,13.538-33.891
		c5.622,8.168-13.329,49.652,2.417,28.009c0.844-1.334,2.061-3.181,3.211-4.771c-5.451,40.937-14.962,74.362-38.868,108.588
		c-19.09,24.207-14.04-17.312-15.839-28.064c-4.377,4.896-4.256,10.98-4.513,16.856c-0.745,17.241-2.411,18.94-19.818,20.199
		c-19.009,1.363-37.873-0.696-56.531-2.24c-18.747-1.473-18.66-2.552-8.562-18.851c21.517-38.339,52.48-81.833,53.219-128.681
		c-3.203,0.737-3.396,2.959-3.568,4.926c-8.67,40.942-29.284,78.204-45.469,105.505c-5.467,14.182-27.245,29.204-13.758,44.713
		c-2.342,0.227-4.655-0.709-6.63-1.589c-11.191-5.555-3.855,10.056-16.411-1.052c-6.349,9.922-11.46-0.245-17.964-0.327
		c-4.627,9.114-10.205,3.372-15.184-1.31c-3.562-2.411-7.265,1.601-11.153,0.54c7.793-13.47,3.963-27.84,5.118-42.114
		c2.745-32.927,6.884-71.714,16.774-109.74c0.891-3.377,2.185-6.013,0.151-10.378c-9.824,14.223-10.25,31.161-14.827,47.381
		c-4.759-11.176-5.396-22.238-12.868-32.546c-0.956,10.686,1.815,17.724,4.213,26.171c9.883,32.06-1.195,69.89,0.21,104.243
		c-0.085,5.386-1.655,14.016-6.566,15.017c-7.563-4.993-9.339,3.154-14.161,6.369c-3.902-14.553-9.746-2.159-17.363-0.99
		l-1.111-8.091c-4.155,1.195-4.168,7.448-9.431,6.499c-2.821-2.65,2.607-5.378,0.083-8.025c-4.912,0.458-6.871,7.474-13.209,3.609
		c10.297-6.577,5.275-14.122,0.955-21.473c-15.794-27.828-31.496-58.192-39.377-91.645c-6.817-22.971-3.276-48.076-9.548-70.009
		c-9.439,45.937,7.887,95.353,31.997,143.189c3.98,10.296,15.091,21.381,15.38,31.837c-25.595,9.337-58.166,0.731-84.847-0.979
		c-5.405,0.298-5.261-4.043-6.882-7.102c-4.519,0.607-6.29,12.718-11.753,12.465c-32.162-22.544-41.056-81.861-43.333-118.907
		c4.944,8.331,3.046,17.457,9.91,25.336c0.966-14.662-4.269-28.217-1.581-42.674c9.639,10.94-0.033,30.052,13.37,41.919
		l-3.795-32.159c15.013,23.676,22.457,50.717,29.977,76.876c5.669-18.385-5.181-32.584-10.561-52.103
		c-4.567-9.302,7.581-14.57,12.688-20.69c12.799-11.03,26.894-12.352,40.67-3.8c1.115,0.789,2.266,1.605,4.317,0.648
		c-2.209-10.428-14.582-9.242-20.457-13.766c-0.953-1.86,0.511-4.474,2.13-7.381c16.138-28.726,22.096-50.04,25.786-78.728
		c16.155,12.644,31.905,26.604,52.975,31.321c-30.401-18.755-61.408-41.203-82.68-76.693c40.452-5.818,38.558-63.772-1.995-65.622
		c8.407-24.328,14.45-50,20.479-75.244c3.872-17.599,15.943-32.432,25.364-48.999c-6.661,0.925-9.512,6.632-13.863,10.845
		c-3.548-44.446,6.549-86.868,17.651-131.333c7.104-23.636,23.831-31.926,41.39-35.949c11.616-2.542,12.157-2.01,11.971,9.704
		c-0.454,34.172-1.855,74.606-8.797,115.403c-0.651,15.638-15.673,9.079-22.751,21.074c51.359-14.811,103.119-12.629,162.466,6.761
		c-2.23,5.323-9.841,8.153-8.429,14.265c52.852-36.796,122.303-64.671,188.754-70.657c6.85,18.774-0.946,45.071-19.086,53.417
		c-37.102,19.368-83.333,38.094-129.726,52.552c4.09,5.927,9.73-0.993,13.627,1.794c15.629,29.054,10.898,66.778,10.473,99.778
		c-0.725,56.26-16.737,92.637-69.976,115.242c13.592,2.596,29.676-6.964,54.561-31.842c2.336,30.866,14.182,61.597,23.775,93.322
		c-10.044,5.589-19.451,6.138-24.73,16.98c3.616,1.267,5.459-1.766,8.001-3.306C378.125,561.795,402.414,557.985,410.43,572.015z
		 M389.391,487.464c3.597,4.827,2.433,6.845-2.597,9.279c-12.832,6.209-12.641,6.41-15.404-7.582
		c-1.923-9.739-4.601-19.374-2.975-31.808C376.227,468.644,382.533,478.259,389.391,487.464z M529.2,416.325
		c-2.796,4.69-5.766,6.365-11.031,6.184c-33.653-1.172-63.5,0.925-91.302,1.471c-16.281,0.32-4.057,25.831-0.851,35.928
		c3.908,12.308,8.729,31.881,12.599,44.428c1.908,6.187,0.666,8.582-5.542,10.675c-13.184,7.217-49.346,10.415-48.616,28.252
		c-2.964-6.149-15.397-28.964-7.644-30.96c7.821-3.824,15.678-7.863,23.753-11.405c5.079-2.309,5.752-4.552,2.895-9.346
		c-56.65-80.767-16.289-40.333-24.315-133.849c-3.685-42.941,176.576-70.912,206.512-66.877l0.322,0.041
		C570.081,334.543,550.732,380.203,529.2,416.325z"/>
	<g>
		<g>
			<path fill="#FFFFFF" d="M132.292,305.527c0.013,3.988,2.482,8.068,7.968,8.194c3.065,0.083,5.581-1.292,7.068-3.833
				c1.688-2.887,1.725-6.829,0.089-9.588c-1.411-2.375-3.876-3.616-6.97-3.523C135.074,296.937,132.279,301.301,132.292,305.527z"/>
			<path fill="#FFFFFF" d="M293.393,321.821c3.127,0.207,5.736-1.055,7.363-3.538c1.878-2.864,2.107-6.793,0.573-9.776
				c-1.345-2.611-3.891-4.121-7.171-4.251c-0.159-0.007-0.314-0.01-0.466-0.01c-5.604,0-8.378,4.235-8.583,8.169
				C284.887,316.672,287.383,321.432,293.393,321.821z"/>
		</g>
		<g>
			<path fill="#EF5C33" d="M306.518,398.815c-2.313,8.254-0.055,16.402,6.359,22.943c11.282,11.507,26.371,8.565,35.445-0.291
				c8.425-8.221,12.18-22.536,0.52-34.545c-5.023-5.173-11.006-7.906-17.303-7.906c-1.855,0-3.738,0.24-5.6,0.713
				C316.876,382.031,309.071,389.701,306.518,398.815z"/>
			<path fill="#EF5C33" d="M235.056,377.533c-6.532-2.316-12.631-5.591-18.529-8.758c-4.34-2.33-8.826-4.738-13.422-6.727
				c-0.533-0.231-1.057-0.473-1.581-0.715c-1.993-0.924-4.052-1.878-6.311-1.878c-0.652,0-1.281,0.076-1.922,0.232
				c-7.177,1.73-14.866,7.236-20.57,14.73c-5.935,7.799-8.551,16.186-7.176,23.014c5.118,25.396,13.784,43.903,27.274,58.242
				c3.255,3.462,7.186,5.344,12.017,5.752c6.147-0.86,11.702-4.446,16.871-10.962c12.171-15.341,19.905-33.677,23.642-56.054
				c0.238-1.418,0.6-2.882,0.95-4.297c0.833-3.358,1.692-6.828,0.895-9.625c-0.826-2.892-3.033-2.882-6.573-2.628l-0.037-0.514
				l0.022,0.515C238.716,377.992,236.763,378.136,235.056,377.533z"/>
			<path fill="#EF5C33" d="M76.925,395.974c1.565,11.041,5.296,17.584,10.506,18.408c5.476,0.875,12.249-4.602,16.5-13.298
				c4.497-9.2,6.019-22.104-3.198-30.731c-3.543-3.686-8.255-6.331-12.464-6.331c-2.106,0-4.087,0.661-5.733,2.188
				C77.812,370.589,76.33,390.588,76.925,395.974z"/>
		</g>
		<g>
			<path fill="#FCD638" d="M585.278,291.297c-1.811-0.221-4.182-0.332-7.042-0.332c-17.057,0-51.507,3.936-88.34,11.654
				c-29.584,6.199-82.229,19.47-102.414,38.701c-5.657,5.389-8.289,10.888-7.821,16.34c3.178,37.037-1.259,53.28-4.194,64.029
				c-4.502,16.479-5.712,20.909,28.418,69.569c1.591,2.666,2.075,4.528,1.594,6.068c-0.481,1.537-1.93,2.784-4.698,4.042
				c-6.083,2.668-12.118,5.656-17.953,8.546c-1.933,0.957-3.861,1.912-5.786,2.853c-0.904,0.244-1.464,0.712-1.808,1.469
				c-2.25,4.942,5.284,19.984,8.5,26.407c0.098,0.195,0.193,0.386,0.285,0.569c1.339-11.429,17.886-16.402,32.58-20.817
				c6.349-1.908,12.345-3.709,16.228-5.834c5.991-2.029,7.111-4.185,5.297-10.071c-1.84-5.965-3.935-13.663-5.961-21.109
				c-2.255-8.289-4.588-16.861-6.637-23.316c-0.473-1.489-1.132-3.285-1.896-5.365c-3.4-9.265-8.056-21.952-3.947-27.963
				c1.44-2.105,3.853-3.206,7.174-3.271c8.412-0.165,16.883-0.467,25.852-0.788c20.646-0.737,41.993-1.499,65.478-0.683
				c5.078,0.165,7.853-1.378,10.569-5.932C547.598,384.453,566.613,342.481,585.278,291.297z"/>
			<path fill="#FCD638" d="M443.007,582.162c-0.658,0.968-1.348,2.015-1.978,3.012l-0.019,0.027
				c-4.249,5.839-5.688,6.736-6.627,6.307c-1.385-0.64-0.624-4.063,1.229-11.745c1.766-7.315,4.126-17.096,2.674-21.467
				c-0.809,2.885-1.294,6.169-1.802,9.619c-1.418,9.617-2.884,19.56-11.642,23.339l-0.936,0.404l5.333-23.095
				c-0.441-0.021-1.129,0.073-1.634,0.706c-6.486,8.131-11.519,17.628-16.386,26.812c-2.615,4.933-5.318,10.036-8.231,14.903
				l-0.652,1.09l-0.291-1.237c-1.541-6.536,1.635-13.124,4.708-19.494c3.324-6.896,6.466-13.408,3.23-19.071
				c-2.332-4.083-6.19-6.829-11.465-8.163c-11.296-2.855-25.535,1.49-33.978,6.742c-0.644,0.391-1.262,0.897-1.859,1.387
				c-1.713,1.404-3.658,2.993-6.585,1.967l-0.547-0.191l0.254-0.521c3.864-7.938,9.799-10.44,16.672-13.337
				c2.561-1.079,5.206-2.195,7.907-3.667c-1.997-6.592-4.118-13.225-6.17-19.647c-7.932-24.818-15.429-48.277-17.418-72.273
				c-24.889,24.744-40.64,33.793-54.232,31.196l-1.665-0.318l1.561-0.662c49.336-20.948,68.867-53.127,69.661-114.774
				c0.074-5.653,0.268-11.311,0.473-17.302c0.984-28.602,2.001-58.176-10.826-82.116c-1.44-0.951-3.238-0.43-5.136,0.121
				c-2.792,0.814-5.961,1.733-8.52-1.975l-0.398-0.577l0.669-0.208c46.47-14.483,92.511-33.134,129.64-52.517
				c18.551-8.535,25.253-34.586,18.975-52.409c-62.581,5.723-132.874,32.073-188.109,70.53l-0.626,0.436l-0.171-0.743
				c-0.925-4.005,1.759-6.702,4.354-9.31c1.468-1.476,2.982-2.997,3.867-4.76c-59.132-19.229-110.5-21.318-161.613-6.576
				l-1.245,0.359l0.658-1.117c3.2-5.423,8.028-7.184,12.287-8.738c5.388-1.965,10.042-3.663,10.392-12.095
				c6.945-40.829,8.343-81.237,8.797-115.389c0.093-5.818-0.012-8.681-1.37-9.791c-1.426-1.168-4.72-0.551-9.975,0.598
				c-15.152,3.473-33.513,10.658-41.006,35.594c-9.895,39.635-21.107,84.544-17.718,130.022c0.822-0.859,1.603-1.767,2.365-2.653
				c2.89-3.358,5.878-6.829,11-7.54l1.036-0.144l-0.518,0.909c-2.582,4.542-5.394,9.003-8.115,13.317
				c-7.405,11.745-14.399,22.84-17.193,35.538l-0.582,2.435c-5.732,24.012-11.659,48.836-19.691,72.219
				c20.526,1.26,30.44,16.49,31.155,31.169c0.717,14.723-8.077,31.931-29.031,35.325c21.397,35.337,52.099,57.345,82.112,75.86
				l2.614,1.613l-2.997-0.671c-18.902-4.232-33.662-15.947-47.936-27.275c-1.511-1.199-3.019-2.397-4.532-3.584
				c-3.481,26.611-8.893,48.045-25.731,78.017c-1.492,2.678-2.887,5.181-2.169,6.793c1.94,1.454,4.607,2.298,7.429,3.189
				c5.442,1.72,11.61,3.668,13.122,10.806l0.085,0.401l-0.372,0.173c-2.325,1.081-3.715,0.097-4.833-0.695
				c-13.552-8.411-27.406-7.114-40.036,3.769c-1.361,1.642-3.257,3.232-5.265,4.914c-5.134,4.303-10.442,8.753-7.296,15.157
				c1.606,5.794,3.643,11.031,5.612,16.094c4.647,11.946,9.036,23.229,4.978,36.389l-0.509,1.653l-1.31-4.56
				c-7.004-24.407-14.241-49.623-27.867-71.89l3.683,31.209l-1.012-0.896c-7.438-6.586-7.918-15.248-8.382-23.625
				c-0.361-6.529-0.705-12.717-4.331-17.48c-1.21,7.596-0.306,14.839,0.647,22.486c0.767,6.149,1.561,12.508,1.132,19.023
				l-0.083,1.246l-0.821-0.942c-3.95-4.534-5.073-9.525-6.16-14.352c-0.665-2.957-1.349-5.994-2.69-8.924
				c2.36,34.792,11.106,93.622,42.83,115.997c2.53-0.005,4.282-3.212,5.977-6.316c1.638-2.999,3.186-5.832,5.539-6.149l0.355-0.048
				l0.168,0.317c0.4,0.754,0.695,1.575,0.979,2.368c0.898,2.504,1.663,4.674,5.421,4.461c7.149,0.454,14.515,1.377,22.313,2.354
				c21.345,2.677,43.414,5.44,62.031-1.216c-0.325-6.14-4.461-12.635-8.464-18.921c-2.607-4.092-5.301-8.323-6.867-12.374
				c-30.209-59.935-40.091-104.201-32.021-143.479l0.423-2.058l0.578,2.02c3.079,10.764,3.82,22.521,4.537,33.891
				c0.756,12.003,1.539,24.415,5.011,36.112c7.872,33.418,23.555,63.742,39.33,91.538l0.494,0.839
				c3.982,6.741,8.481,14.358-0.908,20.851c3.155,1.58,5.017,0.125,7.148-1.547c1.471-1.155,2.992-2.349,5.023-2.538l0.249-0.023
				l0.173,0.181c1.491,1.565,0.648,3.208-0.029,4.528c-0.735,1.434-1.144,2.379-0.181,3.372c2.591,0.395,3.693-1.166,4.975-2.97
				c1.042-1.466,2.119-2.982,4.068-3.543l0.573-0.165l1.118,8.144c2.178-0.485,4.204-1.88,6.169-3.231
				c2.461-1.692,4.786-3.288,6.924-2.502c1.713,0.631,3.034,2.696,4.131,6.476c1.129-0.893,2.107-2.067,3.058-3.208
				c2.629-3.155,5.346-6.418,10.904-2.859c4.539-1.168,5.881-9.936,5.953-14.473c-0.526-12.825,0.711-26.369,1.906-39.469
				c2.002-21.934,4.072-44.615-2.093-64.614c-0.341-1.2-0.687-2.361-1.027-3.509c-2.076-6.985-4.036-13.584-3.207-22.861
				l0.123-1.371l0.808,1.116c4.782,6.598,6.749,13.34,8.831,20.479c1.028,3.527,2.087,7.159,3.522,10.776
				c1.178-4.415,2.09-8.92,2.974-13.292c2.264-11.196,4.606-22.771,11.527-32.79l0.511-0.74l0.38,0.816
				c1.833,3.935,1.069,6.574,0.262,9.368c-0.129,0.443-0.259,0.894-0.382,1.359c-9.88,37.985-14.017,76.745-16.759,109.651
				c-0.344,4.26-0.241,8.606-0.14,12.81c0.231,9.604,0.469,19.527-4.692,28.893c1.353,0.164,2.716-0.264,4.139-0.711
				c1.198-0.379,2.419-0.763,3.647-0.763c0.95,0,1.906,0.231,2.857,0.875l0.576,0.534c3.113,2.938,6.345,5.972,9.269,5.461
				c1.706-0.297,3.207-1.766,4.59-4.491l0.146-0.286l0.321,0.004c2.372,0.03,4.508,1.289,6.574,2.506
				c3.785,2.228,7.05,4.152,10.949-1.941l0.324-0.507l0.451,0.4c3.214,2.841,5.351,4.137,6.554,3.951
				c0.681-0.105,1.058-0.681,1.618-1.613c1.054-1.755,2.499-4.153,8.127-1.362c1.613,0.719,3.463,1.472,5.323,1.561
				c-8.553-10.778-1.007-21.197,6.297-31.282c3.296-4.552,6.41-8.85,8.059-13.127c17.807-30.053,37.099-66.01,45.445-105.426
				c0.169-1.972,0.391-4.501,3.957-5.322l0.641-0.148l-0.01,0.659c-0.618,39.208-22.59,76.511-41.975,109.423
				c-3.981,6.759-7.74,13.143-11.311,19.503c-4.88,7.876-7.579,12.431-6.449,14.663c1.116,2.203,6.506,2.785,14.602,3.421
				c2.368,0.195,4.737,0.4,7.109,0.604c16.12,1.387,32.791,2.822,49.345,1.635c17.16-1.24,18.606-2.713,19.341-19.706l0.055-1.38
				c0.211-5.479,0.43-11.145,4.587-15.797l0.716-0.8l0.177,1.058c0.412,2.461,0.468,6.383,0.535,10.924
				c0.138,9.539,0.327,22.603,4.569,24.041c2.206,0.741,5.503-1.657,9.822-7.134C425.557,658.291,436.773,627.386,443.007,582.162z
				 M189.959,331.989l0.053-0.151l0.13-0.094c2.823-2.04,11.005-1.689,13.828,1.221c0.84,0.865,1.925,2.736-0.234,5.538
				c-1.635,2.122-3.948,3.011-6.213,3.011c-1.503,0-2.986-0.392-4.237-1.073C190.06,338.681,188.754,335.363,189.959,331.989z
				 M120.405,337.593c-7.757-4.669-11.826-12.656-11.457-22.49c0.659-17.575,14.412-26.71,27.742-26.71c0.083,0,0.163,0,0.246,0.001
				c12.537,0.106,25.353,8.354,25.728,26.543c0.205,9.982-4.15,18.065-12.264,22.763c-4.512,2.613-9.755,3.918-14.973,3.918
				C130.132,341.618,124.863,340.275,120.405,337.593z M263.896,368.056c-8.037,6.491-9.227,15.082-10.487,24.177
				c-0.525,3.785-1.067,7.698-2.143,11.442c-5.057,23.242-21.987,59.867-42.236,64.561c-1.501,0.348-2.998,0.523-4.487,0.523
				c-7.6,0-15.027-4.523-22.137-13.498c-16.725-22.068-23.665-48.198-28.675-73.148c-1.111-9.037-2.267-9.818-7.135-13.108
				c-1.184-0.799-2.526-1.706-4.138-2.907l-0.165-0.124l-0.035-0.203c-0.269-1.588-0.118-2.528,0.492-3.05
				c0.95-0.809,2.603-0.258,5.103,0.58c4.915,1.646,12.34,4.133,20.867-1.004c4.706-2.058,8.514-3.848,11.573-5.286
				c13.194-9.177,25.698-2.49,38.934,4.591c13.693,7.327,27.853,14.902,43.213,3.768l0.521-0.377l0.255,0.59
				c0.208,0.483,0.362,0.823,0.504,1.136l0.481,1.088L263.896,368.056z M295.14,351.219c-18.459-0.213-26.914-14.289-26.957-27.275
				c-0.045-13.177,8.292-27.511,26.702-27.848c9.79-0.178,17.81,4.171,22.566,12.25c5.439,9.241,5.538,21.585,0.247,30.717
				c-4.55,7.851-12.413,12.159-22.172,12.159C295.397,351.221,295.269,351.22,295.14,351.219z M299.327,397.777
				c2.999-11.78,12.842-21.882,24.492-25.139c10.62-2.972,21.165,0.003,29.688,8.372c14.978,14.706,11.304,34.183-0.066,45.823
				c-5.941,6.08-14.306,10.309-23.23,10.309c-7.21,0-14.784-2.758-21.746-9.526C299.813,419.205,296.569,408.608,299.327,397.777z"
				/>
		</g>
	</g>
</g>
<g>
</g>
<g>
</g>
<g>
</g>
<g>
</g>
<g>
</g>
</svg>
